<mxfile host="65bd71144e">
    <diagram id="D1BOBWHj6Sz0jNLxJeXA" name="PÃ¡gina-1">
        <mxGraphModel dx="878" dy="1448" grid="1" gridSize="10" guides="1" tooltips="1" connect="1" arrows="1" fold="1" page="1" pageScale="1" pageWidth="827" pageHeight="1169" background="#ffffff" math="0" shadow="0">
            <root>
                <mxCell id="0"/>
                <mxCell id="1" parent="0"/>
                <mxCell id="2" value="" style="group" vertex="1" connectable="0" parent="1">
                    <mxGeometry x="40.00000000000006" y="-60" width="252" height="280" as="geometry"/>
                </mxCell>
                <mxCell id="4" style="edgeStyle=none;html=1;exitX=1;exitY=0.5;exitDx=0;exitDy=0;" edge="1" parent="2" source="5">
                    <mxGeometry relative="1" as="geometry">
                        <mxPoint x="173.93968253968242" y="176.97000000000017" as="targetPoint"/>
                    </mxGeometry>
                </mxCell>
                <mxCell id="5" value="" style="rounded=0;whiteSpace=wrap;html=1;fillColor=#FFFFFF;fontColor=#ffffff;strokeColor=#000000;strokeWidth=2;container=0;" vertex="1" parent="2">
                    <mxGeometry y="83.94" width="174.6" height="196.06" as="geometry"/>
                </mxCell>
                <mxCell id="6" value="" style="rounded=0;whiteSpace=wrap;html=1;fillColor=#FFFFFF;fontColor=#ffffff;strokeColor=#000000;strokeWidth=2;container=0;" vertex="1" parent="2">
                    <mxGeometry y="124.96000000000001" width="176" height="108.98" as="geometry"/>
                </mxCell>
                <mxCell id="8" value="Contado" style="text;strokeColor=none;fillColor=none;html=1;fontSize=18;fontStyle=1;verticalAlign=middle;align=center;fontColor=#141414;container=0;" vertex="1" parent="2">
                    <mxGeometry x="20" y="83.94" width="110" height="41.02454799353226" as="geometry"/>
                </mxCell>
                <mxCell id="10" value="nome: string" style="text;html=1;strokeColor=none;fillColor=none;align=center;verticalAlign=middle;whiteSpace=wrap;rounded=0;fontSize=12;fontColor=#141414;container=0;" vertex="1" parent="2">
                    <mxGeometry x="-10" y="110.00150668822579" width="100" height="41.02454799353226" as="geometry"/>
                </mxCell>
                <mxCell id="11" value="tel: int" style="text;html=1;strokeColor=none;fillColor=none;align=center;verticalAlign=middle;whiteSpace=wrap;rounded=0;fontSize=12;fontColor=#141414;" vertex="1" parent="2">
                    <mxGeometry x="-20" y="127.82005291783037" width="100" height="23.206219315008077" as="geometry"/>
                </mxCell>
                <mxCell id="12" value="cell: int" style="text;html=1;strokeColor=none;fillColor=none;align=center;verticalAlign=middle;whiteSpace=wrap;rounded=0;fontSize=12;fontColor=#141414;" vertex="1" parent="2">
                    <mxGeometry x="-20" y="129.996054681758" width="100" height="41.02454799353226" as="geometry"/>
                </mxCell>
                <mxCell id="13" value="url: string" style="text;html=1;strokeColor=none;fillColor=none;align=center;verticalAlign=middle;whiteSpace=wrap;rounded=0;fontSize=12;fontColor=#141414;" vertex="1" parent="2">
                    <mxGeometry x="-20" y="139.9962722328384" width="100" height="41.02454799353226" as="geometry"/>
                </mxCell>
                <mxCell id="14" value="nascimento: date" style="text;html=1;strokeColor=none;fillColor=none;align=center;verticalAlign=middle;whiteSpace=wrap;rounded=0;fontSize=12;fontColor=#141414;container=0;" vertex="1" parent="2">
                    <mxGeometry y="161.97" width="100" height="30" as="geometry"/>
                </mxCell>
                <mxCell id="15" value="email: string" style="text;html=1;strokeColor=none;fillColor=none;align=center;verticalAlign=middle;whiteSpace=wrap;rounded=0;fontSize=12;fontColor=#141414;container=0;" vertex="1" parent="2">
                    <mxGeometry x="-10" y="171.02" width="100" height="30" as="geometry"/>
                </mxCell>
                <mxCell id="16" value="cep: int" style="text;html=1;strokeColor=none;fillColor=none;align=center;verticalAlign=middle;whiteSpace=wrap;rounded=0;fontSize=12;fontColor=#141414;" vertex="1" parent="2">
                    <mxGeometry x="-20" y="181.02" width="100" height="30" as="geometry"/>
                </mxCell>
                <mxCell id="17" value="cidade: string" style="text;html=1;strokeColor=none;fillColor=none;align=center;verticalAlign=middle;whiteSpace=wrap;rounded=0;fontSize=12;fontColor=#141414;container=0;" vertex="1" parent="2">
                    <mxGeometry x="-10" y="191.97" width="100" height="30" as="geometry"/>
                </mxCell>
                <mxCell id="18" value="insta: string" style="text;html=1;strokeColor=none;fillColor=none;align=center;verticalAlign=middle;whiteSpace=wrap;rounded=0;fontSize=12;fontColor=#141414;container=0;" vertex="1" parent="2">
                    <mxGeometry x="-10" y="201.02" width="100" height="30" as="geometry"/>
                </mxCell>
                <mxCell id="19" value="git: string" style="text;html=1;strokeColor=none;fillColor=none;align=center;verticalAlign=middle;whiteSpace=wrap;rounded=0;fontSize=12;fontColor=#141414;" vertex="1" parent="2">
                    <mxGeometry x="-20" y="211.01999999999998" width="100" height="30" as="geometry"/>
                </mxCell>
                <mxCell id="21" value="-calcularIdade(): int" style="text;html=1;strokeColor=none;fillColor=none;align=center;verticalAlign=middle;whiteSpace=wrap;rounded=0;fontSize=12;fontColor=#141414;" vertex="1" parent="2">
                    <mxGeometry x="-10" y="231.02" width="130" height="30" as="geometry"/>
                </mxCell>
                <mxCell id="22" value="-pegarSigno(): string" style="text;html=1;strokeColor=none;fillColor=none;align=center;verticalAlign=middle;whiteSpace=wrap;rounded=0;fontSize=12;fontColor=#141414;" vertex="1" parent="2">
                    <mxGeometry y="250" width="130" height="30" as="geometry"/>
                </mxCell>
            </root>
        </mxGraphModel>
    </diagram>
</mxfile>